<svg xmlns="http://www.w3.org/2000/svg" viewBox="0 0 1280 720">
  <defs>
    <linearGradient id="accentGlow" x1="0%" y1="0%" x2="100%" y2="100%">
      <stop offset="0%" stop-color="#2196F3" stop-opacity="0.12" />
      <stop offset="100%" stop-color="#00BCD4" stop-opacity="0.04" />
    </linearGradient>
    <linearGradient id="vignetteR" x1="100%" y1="0%" x2="0%" y2="100%">
      <stop offset="0%" stop-color="#0D1B2A" stop-opacity="0" />
      <stop offset="100%" stop-color="#0D1B2A" stop-opacity="0.6" />
    </linearGradient>
  </defs>

  
  <rect x="0" y="0" width="1280" height="720" fill="#0D1B2A" />

  
  <g fill="none" stroke="#1B2838" stroke-width="0.5" stroke-opacity="0.4">
    <line x1="0" y1="120" x2="1280" y2="120" />
    <line x1="0" y1="240" x2="1280" y2="240" />
    <line x1="0" y1="360" x2="1280" y2="360" />
    <line x1="0" y1="480" x2="1280" y2="480" />
    <line x1="0" y1="600" x2="1280" y2="600" />
    <line x1="160" y1="0" x2="160" y2="720" />
    <line x1="320" y1="0" x2="320" y2="720" />
    <line x1="480" y1="0" x2="480" y2="720" />
    <line x1="640" y1="0" x2="640" y2="720" />
    <line x1="800" y1="0" x2="800" y2="720" />
    <line x1="960" y1="0" x2="960" y2="720" />
    <line x1="1120" y1="0" x2="1120" y2="720" />
  </g>

  
  <rect x="0" y="0" width="1280" height="720" fill="url(#accentGlow)" />

  
  <g fill="none" stroke-width="1.2">
    
    <g stroke="#2196F3" stroke-opacity="0.7">
      
      <path d="M722,180 H778 A2,2 0 0 1 780,182 V218 A2,2 0 0 1 778,220 H722 A2,2 0 0 1 720,218 V182 A2,2 0 0 1 722,180 Z" />
      <path d="M792,180 H848 A2,2 0 0 1 850,182 V218 A2,2 0 0 1 848,220 H792 A2,2 0 0 1 790,218 V182 A2,2 0 0 1 792,180 Z" />
      <path d="M862,180 H918 A2,2 0 0 1 920,182 V218 A2,2 0 0 1 918,220 H862 A2,2 0 0 1 860,218 V182 A2,2 0 0 1 862,180 Z" />
      <path d="M722,235 H778 A2,2 0 0 1 780,237 V273 A2,2 0 0 1 778,275 H722 A2,2 0 0 1 720,273 V237 A2,2 0 0 1 722,235 Z" />
      <path d="M792,235 H848 A2,2 0 0 1 850,237 V273 A2,2 0 0 1 848,275 H792 A2,2 0 0 1 790,273 V237 A2,2 0 0 1 792,235 Z" />
      <path d="M862,235 H918 A2,2 0 0 1 920,237 V273 A2,2 0 0 1 918,275 H862 A2,2 0 0 1 860,273 V237 A2,2 0 0 1 862,235 Z" />
      <path d="M722,290 H778 A2,2 0 0 1 780,292 V328 A2,2 0 0 1 778,330 H722 A2,2 0 0 1 720,328 V292 A2,2 0 0 1 722,290 Z" />
      <path d="M792,290 H848 A2,2 0 0 1 850,292 V328 A2,2 0 0 1 848,330 H792 A2,2 0 0 1 790,328 V292 A2,2 0 0 1 792,290 Z" />
      <path d="M862,290 H918 A2,2 0 0 1 920,292 V328 A2,2 0 0 1 918,330 H862 A2,2 0 0 1 860,328 V292 A2,2 0 0 1 862,290 Z" />
      
      <text x="750" y="340" font-family="Consolas, monospace" font-size="12" fill="#2196F3" fill-opacity="0.8" stroke="none">CORES [0..23]</text>
    </g>

    
    <g stroke="#00BCD4" stroke-opacity="0.5">
      <path stroke-dasharray="6,4" d="M704,160 H936 A4,4 0 0 1 940,164 V356 A4,4 0 0 1 936,360 H704 A4,4 0 0 1 700,356 V164 A4,4 0 0 1 704,160 Z" />
      <text x="820" y="395" font-family="Consolas, monospace" font-size="11" fill="#00BCD4" fill-opacity="0.7" stroke="none">INTERCONNECT (NoC)</text>
    </g>

    
    <g stroke="#4DD0E1" stroke-opacity="0.6">
      <path d="M963,200 H1037 A3,3 0 0 1 1040,203 V337 A3,3 0 0 1 1037,340 H963 A3,3 0 0 1 960,337 V203 A3,3 0 0 1 963,200 Z" />
      <path d="M971,210 H1029 A1,1 0 0 1 1030,211 V229 A1,1 0 0 1 1029,230 H971 A1,1 0 0 1 970,229 V211 A1,1 0 0 1 971,210 Z" />
      <path d="M971,240 H1029 A1,1 0 0 1 1030,241 V259 A1,1 0 0 1 1029,260 H971 A1,1 0 0 1 970,259 V241 A1,1 0 0 1 971,240 Z" />
      <path d="M971,270 H1029 A1,1 0 0 1 1030,271 V289 A1,1 0 0 1 1029,290 H971 A1,1 0 0 1 970,289 V271 A1,1 0 0 1 971,270 Z" />
      <path d="M971,300 H1029 A1,1 0 0 1 1030,301 V319 A1,1 0 0 1 1029,320 H971 A1,1 0 0 1 970,319 V301 A1,1 0 0 1 971,300 Z" />
      <text x="1000" y="370" font-family="Consolas, monospace" font-size="11" fill="#4DD0E1" fill-opacity="0.7" stroke="none">DRAM (HBM2)</text>
    </g>

    
    <g stroke="#2196F3" stroke-opacity="0.5">
      <path d="M623,230 H687 A3,3 0 0 1 690,233 V287 A3,3 0 0 1 687,290 H623 A3,3 0 0 1 620,287 V233 A3,3 0 0 1 623,230 Z" />
      <text x="627" y="255" font-family="Consolas, monospace" font-size="10" fill="#2196F3" fill-opacity="0.7" stroke="none">SCHEDULER</text>
    </g>

    
    <line x1="690" y1="260" x2="720" y2="210" stroke="#2196F3" stroke-opacity="0.3" stroke-width="0.8" />
    <line x1="690" y1="260" x2="750" y2="210" stroke="#2196F3" stroke-opacity="0.3" stroke-width="0.8" />

    
    <line x1="940" y1="220" x2="960" y2="220" stroke="#00BCD4" stroke-opacity="0.4" stroke-width="0.8" />
    <line x1="940" y1="300" x2="960" y2="300" stroke="#00BCD4" stroke-opacity="0.4" stroke-width="0.8" />
    <polygon points="956,216 960,220 956,224" fill="#00BCD4" fill-opacity="0.4" stroke="none" />
    <polygon points="960,296 956,300 960,304" fill="#00BCD4" fill-opacity="0.4" stroke="none" />

    
    <g stroke="#00BCD4" stroke-opacity="0.5">
      <path d="M 500 340 L 620 340" stroke-dasharray="4,3" />
      <polygon points="612,336 620,340 612,344" fill="#00BCD4" fill-opacity="0.5" stroke="none" />
    </g>

    
    <g stroke="#4DD0E1" stroke-opacity="0.5">
      <path d="M342,310 H418 A2,2 0 0 1 420,312 V336 A2,2 0 0 1 418,338 H342 A2,2 0 0 1 340,336 V312 A2,2 0 0 1 342,310 Z" />
      <text x="346" y="329" font-family="Consolas, monospace" font-size="10" fill="#4DD0E1" fill-opacity="0.7" stroke="none">MODEL</text>
      <path d="M432,310 H488 A2,2 0 0 1 490,312 V336 A2,2 0 0 1 488,338 H432 A2,2 0 0 1 430,336 V312 A2,2 0 0 1 432,310 Z" />
      <text x="435" y="329" font-family="Consolas, monospace" font-size="10" fill="#4DD0E1" fill-opacity="0.7" stroke="none">OP</text>
      <path d="M 420 324 L 430 324" />
      <path d="M 490 324 L 500 324" />
    </g>

    
    <g stroke="#607D8B" stroke-opacity="0.4" stroke-width="0.5">
      
      <line x1="700" y1="160" x2="700" y2="150" />
      <line x1="940" y1="160" x2="940" y2="150" />
      <line x1="700" y1="148" x2="940" y2="148" />
      <polygon points="700,148 706,146 706,150" fill="#607D8B" fill-opacity="0.4" />
      <polygon points="940,148 934,146 934,150" fill="#607D8B" fill-opacity="0.4" />
      
      <line x1="940" y1="160" x2="950" y2="160" />
      <line x1="940" y1="360" x2="950" y2="360" />
      <line x1="948" y1="160" x2="948" y2="360" />
      <polygon points="948,160 946,166 950,166" fill="#607D8B" fill-opacity="0.4" />
      <polygon points="948,360 946,354 950,354" fill="#607D8B" fill-opacity="0.4" />
    </g>

    
    <text x="810" y="142" font-family="Consolas, monospace" font-size="8" fill="#607D8B" fill-opacity="0.5" stroke="none">240px</text>
    <text x="956" y="265" font-family="Consolas, monospace" font-size="8" fill="#607D8B" fill-opacity="0.5" stroke="none">200px</text>
  </g>

  
  <g fill="none" stroke="#2196F3" stroke-opacity="0.5" stroke-width="1">
    <path d="M 50 80 L 50 50 L 80 50" />
    <path d="M 1230 80 L 1230 50 L 1200 50" />
    <path d="M 50 640 L 50 670 L 80 670" />
    <path d="M 1230 640 L 1230 670 L 1200 670" />
  </g>

  
  <text x="60" y="260" font-family="'Microsoft YaHei', 'PingFang SC', Arial, sans-serif" font-size="72" font-weight="bold" fill="#ECEFF1" fill-opacity="0.95">Asim</text>

  
  <rect x="60" y="280" width="120" height="3" fill="#00BCD4" fill-opacity="0.8" />

  <text x="60" y="330" font-family="'Microsoft YaHei', 'PingFang SC', Arial, sans-serif" font-size="36" fill="#90A4AE" fill-opacity="0.9">多核 NPU 周期级仿真器</text>

  <text x="60" y="390" font-family="'Microsoft YaHei', 'PingFang SC', Arial, sans-serif" font-size="24" fill="#607D8B" fill-opacity="0.8">架构、流水线与基础算子</text>

  
  <text x="60" y="640" font-family="Consolas, monospace" font-size="14" fill="#607D8B" fill-opacity="0.6">2026-07</text>
  <text x="1220" y="640" font-family="Consolas, monospace" font-size="14" fill="#607D8B" fill-opacity="0.6" text-anchor="end">P01</text>

  
  <rect x="60" y="660" width="1160" height="0.5" fill="#263238" fill-opacity="0.5" />
</svg>