<svg xmlns="http://www.w3.org/2000/svg" viewBox="0 0 1280 720">
  
  <rect x="0" y="0" width="1280" height="720" fill="#0D1B2A" />

  
  <g fill="none" stroke="#1B2838" stroke-width="0.5" stroke-opacity="0.25">
    <line x1="0" y1="160" x2="1280" y2="160" />
    <line x1="0" y1="320" x2="1280" y2="320" />
    <line x1="0" y1="480" x2="1280" y2="480" />
    <line x1="0" y1="640" x2="1280" y2="640" />
    <line x1="320" y1="0" x2="320" y2="720" />
    <line x1="640" y1="0" x2="640" y2="720" />
    <line x1="960" y1="0" x2="960" y2="720" />
  </g>

  
  <text x="60" y="70" font-family="'Microsoft YaHei', 'PingFang SC', Arial, sans-serif" font-size="48" font-weight="bold" fill="#ECEFF1">仿真器整体架构</text>
  <rect x="60" y="86" width="80" height="2" fill="#00BCD4" fill-opacity="0.7" />

  
  <text x="60" y="125" font-family="'Microsoft YaHei', 'PingFang SC', Arial, sans-serif" font-size="22" fill="#90A4AE">Simulator 作为中心调度者，统一管理 7 大子系统，通过三域时间推进实现周期精确仿真</text>

  
  <g fill="none">
    
    <g>
      <path fill="#1B2838" fill-opacity="0.9" stroke="#2196F3" stroke-width="2" stroke-opacity="0.8" d="M516,310 H764 A6,6 0 0 1 770,316 V384 A6,6 0 0 1 764,390 H516 A6,6 0 0 1 510,384 V316 A6,6 0 0 1 516,310 Z" />
      <text x="640" y="345" font-family="Consolas, monospace" font-size="24" font-weight="bold" fill="#ECEFF1" text-anchor="middle">Simulator</text>
      <text x="640" y="372" font-family="'Microsoft YaHei', 'PingFang SC', Arial, sans-serif" font-size="14" fill="#90A4AE" text-anchor="middle">全局事件循环 · 三域时间推进</text>
    </g>

    
    <g>
      <path fill="#1B2838" fill-opacity="0.8" stroke="#2196F3" stroke-width="1.2" stroke-opacity="0.6" d="M544,170 H736 A4,4 0 0 1 740,174 V221 A4,4 0 0 1 736,225 H544 A4,4 0 0 1 540,221 V174 A4,4 0 0 1 544,170 Z" />
      <text x="640" y="195" font-family="Consolas, monospace" font-size="18" font-weight="bold" fill="#ECEFF1" text-anchor="middle">Scheduler</text>
      <text x="640" y="214" font-family="'Microsoft YaHei', 'PingFang SC', Arial, sans-serif" font-size="12" fill="#90A4AE" text-anchor="middle">Tile 分发 → 多核</text>
      
      <line x1="640" y1="310" x2="640" y2="225" stroke="#2196F3" stroke-width="1" stroke-opacity="0.5" />
      <polygon points="636,233 640,225 644,233" fill="#2196F3" fill-opacity="0.5" stroke="none" />
    </g>

    
    <g>
      
      <path fill="none" stroke="#00BCD4" stroke-width="1" stroke-opacity="0.4" stroke-dasharray="6,4" d="M65,240 H415 A5,5 0 0 1 420,245 V495 A5,5 0 0 1 415,500 H65 A5,5 0 0 1 60,495 V245 A5,5 0 0 1 65,240 Z" />
      <text x="240" y="232" font-family="Consolas, monospace" font-size="14" fill="#00BCD4" fill-opacity="0.6" text-anchor="middle">CORES</text>
      
      <path fill="#1B2838" fill-opacity="0.7" stroke="#263238" stroke-width="0.8" d="M83,260 H177 A3,3 0 0 1 180,263 V302 A3,3 0 0 1 177,305 H83 A3,3 0 0 1 80,302 V263 A3,3 0 0 1 83,260 Z" />
      <text x="130" y="280" font-family="Consolas, monospace" font-size="14" fill="#ECEFF1" text-anchor="middle">Core[0]</text>
      <text x="130" y="296" font-family="'Microsoft YaHei', sans-serif" font-size="10" fill="#607D8B" text-anchor="middle">SystolicWS</text>

      <path fill="#1B2838" fill-opacity="0.7" stroke="#263238" stroke-width="0.8" d="M193,260 H287 A3,3 0 0 1 290,263 V302 A3,3 0 0 1 287,305 H193 A3,3 0 0 1 190,302 V263 A3,3 0 0 1 193,260 Z" />
      <text x="240" y="280" font-family="Consolas, monospace" font-size="14" fill="#ECEFF1" text-anchor="middle">Core[1]</text>
      <text x="240" y="296" font-family="'Microsoft YaHei', sans-serif" font-size="10" fill="#607D8B" text-anchor="middle">SystolicWS</text>

      <path fill="#1B2838" fill-opacity="0.7" stroke="#263238" stroke-width="0.8" d="M303,260 H397 A3,3 0 0 1 400,263 V302 A3,3 0 0 1 397,305 H303 A3,3 0 0 1 300,302 V263 A3,3 0 0 1 303,260 Z" />
      <text x="350" y="280" font-family="Consolas, monospace" font-size="14" fill="#ECEFF1" text-anchor="middle">Core[23]</text>
      <text x="350" y="296" font-family="'Microsoft YaHei', sans-serif" font-size="10" fill="#607D8B" text-anchor="middle">SystolicWS</text>

      <text x="240" y="330" font-family="Consolas, monospace" font-size="12" fill="#607D8B" text-anchor="middle">...</text>

      
      <text x="240" y="370" font-family="'Microsoft YaHei', sans-serif" font-size="14" fill="#4DD0E1" text-anchor="middle">Cube Pipeline</text>
      <text x="240" y="392" font-family="'Microsoft YaHei', sans-serif" font-size="14" fill="#4DD0E1" text-anchor="middle">Vector Pipeline</text>
      <text x="240" y="414" font-family="'Microsoft YaHei', sans-serif" font-size="14" fill="#4DD0E1" text-anchor="middle">Scalar Pipeline</text>
      <text x="240" y="445" font-family="Consolas, monospace" font-size="11" fill="#607D8B" text-anchor="middle">SPAD 256KB + ACCUM 256KB</text>

      
      <line x1="540" y1="200" x2="420" y2="340" stroke="#2196F3" stroke-width="0.8" stroke-opacity="0.4" stroke-dasharray="4,3" />
    </g>

    
    <g>
      <path fill="#1B2838" fill-opacity="0.8" stroke="#4DD0E1" stroke-width="1.2" stroke-opacity="0.6" d="M1044,240 H1216 A4,4 0 0 1 1220,244 V356 A4,4 0 0 1 1216,360 H1044 A4,4 0 0 1 1040,356 V244 A4,4 0 0 1 1044,240 Z" />
      <text x="1130" y="275" font-family="Consolas, monospace" font-size="18" font-weight="bold" fill="#ECEFF1" text-anchor="middle">DRAM</text>
      <text x="1130" y="298" font-family="'Microsoft YaHei', sans-serif" font-size="13" fill="#90A4AE" text-anchor="middle">Ramulator2 HBM2</text>
      <text x="1130" y="318" font-family="'Microsoft YaHei', sans-serif" font-size="13" fill="#90A4AE" text-anchor="middle">32 通道</text>
      <text x="1130" y="338" font-family="'Microsoft YaHei', sans-serif" font-size="13" fill="#90A4AE" text-anchor="middle">周期精确模型</text>

      
      <line x1="770" y1="350" x2="1040" y2="300" stroke="#4DD0E1" stroke-width="0.8" stroke-opacity="0.4" stroke-dasharray="4,3" />
    </g>

    
    <g>
      <path fill="#1B2838" fill-opacity="0.8" stroke="#00BCD4" stroke-width="1.2" stroke-opacity="0.6" d="M1024,420 H1216 A4,4 0 0 1 1220,424 V516 A4,4 0 0 1 1216,520 H1024 A4,4 0 0 1 1020,516 V424 A4,4 0 0 1 1024,420 Z" />
      <text x="1120" y="455" font-family="Consolas, monospace" font-size="18" font-weight="bold" fill="#ECEFF1" text-anchor="middle">Interconnect</text>
      <text x="1120" y="478" font-family="'Microsoft YaHei', sans-serif" font-size="13" fill="#90A4AE" text-anchor="middle">NoC：Simple / BookSim2</text>
      <text x="1120" y="498" font-family="'Microsoft YaHei', sans-serif" font-size="13" fill="#90A4AE" text-anchor="middle">Core ↔ DRAM 路由</text>

      
      <line x1="420" y1="420" x2="1020" y2="470" stroke="#00BCD4" stroke-width="0.8" stroke-opacity="0.3" stroke-dasharray="4,3" />
      <polygon points="1012,466 1020,470 1012,474" fill="#00BCD4" fill-opacity="0.3" stroke="none" />
      
      <line x1="770" y1="380" x2="1020" y2="440" stroke="#00BCD4" stroke-width="0.8" stroke-opacity="0.3" />
    </g>

    
    <g>
      <path fill="#1B2838" fill-opacity="0.8" stroke="#4DD0E1" stroke-width="1" stroke-opacity="0.5" d="M64,540 H476 A4,4 0 0 1 480,544 V626 A4,4 0 0 1 476,630 H64 A4,4 0 0 1 60,626 V544 A4,4 0 0 1 64,540 Z" />
      <text x="270" y="572" font-family="Consolas, monospace" font-size="18" font-weight="bold" fill="#ECEFF1" text-anchor="middle">Model → Operation → Tile → Instruction</text>
      <text x="270" y="598" font-family="'Microsoft YaHei', sans-serif" font-size="13" fill="#90A4AE" text-anchor="middle">张量计算图 → 算子实现 → 工作单元 → 原子执行单元</text>
      <text x="270" y="618" font-family="'Microsoft YaHei', sans-serif" font-size="13" fill="#90A4AE" text-anchor="middle">三层执行模型：仿真器的核心设计范式</text>

      
      <line x1="540" y1="190" x2="270" y2="540" stroke="#4DD0E1" stroke-width="0.8" stroke-opacity="0.3" stroke-dasharray="4,3" />
    </g>

    
    <g>
      <path fill="#1B2838" fill-opacity="0.8" stroke="#2196F3" stroke-width="1" stroke-opacity="0.5" d="M524,540 H736 A4,4 0 0 1 740,544 V626 A4,4 0 0 1 736,630 H524 A4,4 0 0 1 520,626 V544 A4,4 0 0 1 524,540 Z" />
      <text x="630" y="572" font-family="Consolas, monospace" font-size="16" font-weight="bold" fill="#ECEFF1" text-anchor="middle">FormulaLogger</text>
      <text x="630" y="595" font-family="'Microsoft YaHei', sans-serif" font-size="12" fill="#90A4AE" text-anchor="middle">数学语义 → formula_steps.json</text>
      <text x="630" y="615" font-family="'Microsoft YaHei', sans-serif" font-size="12" fill="#90A4AE" text-anchor="middle">TraceLogger → trace.csv</text>

      
      <line x1="640" y1="390" x2="630" y2="540" stroke="#2196F3" stroke-width="0.8" stroke-opacity="0.4" />
      <polygon points="634,532 630,540 626,532" fill="#2196F3" fill-opacity="0.4" stroke="none" />
    </g>

    
    <g stroke="#00BCD4" stroke-opacity="0.4" stroke-width="0.8">
      <line x1="420" y1="300" x2="1020" y2="440" stroke-dasharray="3,3" />
      <line x1="420" y1="420" x2="1020" y2="440" />
    </g>
  </g>

  
  <text x="1220" y="695" font-family="Consolas, monospace" font-size="14" fill="#607D8B" fill-opacity="0.5" text-anchor="end">P03</text>
</svg>